<svg width="67" height="67" viewBox="0 0 67 67" fill="none" xmlns="http://www.w3.org/2000/svg">
<path d="M30.7083 5.58325H36.2917V11.1666H37.6875C38.7981 11.1666 39.8632 11.6078 40.6485 12.3931C41.4338 13.1784 41.875 14.2435 41.875 15.3541V25.1249L40.6467 26.3533L45.225 34.2816C48.3238 31.2387 50.25 27.0233 50.25 22.3333H55.8333C55.8333 29.0891 52.8462 35.147 48.1004 39.2508L56.8663 54.4374L57.2292 60.6349L52.0087 57.2291L43.4383 42.3495C40.4792 43.8291 37.0733 44.6666 33.5 44.6666C29.9267 44.6666 26.5208 43.8291 23.5617 42.3495L14.9912 57.2291L9.77083 60.6349L10.1337 54.4374L26.3533 26.3533L25.125 25.1249V15.3541C25.125 14.2435 25.5662 13.1784 26.3515 12.3931C27.1368 11.6078 28.2019 11.1666 29.3125 11.1666H30.7083V5.58325ZM26.3533 37.492C28.5308 38.5249 30.9596 39.0833 33.5 39.0833C36.0404 39.0833 38.4692 38.5249 40.6467 37.492L36.5708 30.4291H36.5429C34.8121 32.1041 32.1879 32.1041 30.4571 30.4291H30.4292L26.3533 37.492V37.492ZM33.5 16.7499C32.7596 16.7499 32.0495 17.044 31.526 17.5676C31.0025 18.0911 30.7083 18.8012 30.7083 19.5416C30.7083 20.282 31.0025 20.9921 31.526 21.5156C32.0495 22.0391 32.7596 22.3333 33.5 22.3333C34.2404 22.3333 34.9505 22.0391 35.474 21.5156C35.9975 20.9921 36.2917 20.282 36.2917 19.5416C36.2917 18.8012 35.9975 18.0911 35.474 17.5676C34.9505 17.044 34.2404 16.7499 33.5 16.7499Z" fill="#858585"/>
</svg>
