<svg width="47" height="77" viewBox="0 0 47 77" fill="none" xmlns="http://www.w3.org/2000/svg">
<path d="M41.125 0H5.875C4.31733 0.00156807 2.82391 0.626109 1.72247 1.73656C0.621027 2.84701 0.00155534 4.35266 0 5.92308V71.0769C0.00155534 72.6473 0.621027 74.153 1.72247 75.2634C2.82391 76.3739 4.31733 76.9984 5.875 77H41.125C42.6824 76.9977 44.1754 76.3729 45.2767 75.2626C46.378 74.1523 46.9977 72.6471 47 71.0769V5.92308C46.9984 4.35266 46.379 2.84701 45.2775 1.73656C44.1761 0.626109 42.6827 0.00156807 41.125 0ZM41.125 5.92308V11.8462H5.875V5.92308H41.125ZM5.875 71.0769V17.7692H41.125V71.0769H5.875Z" fill="white"/>
</svg>
