<svg width="53" height="52" viewBox="0 0 53 52" fill="none" xmlns="http://www.w3.org/2000/svg">
<path d="M50.88 0H2.12C0.947375 0 0 0.9295 0 2.08V49.92C0 51.0705 0.947375 52 2.12 52H50.88C52.0526 52 53 51.0705 53 49.92V2.08C53 0.9295 52.0526 0 50.88 0ZM32.2306 15.5285H41.3996V17.719H32.2306V15.5285ZM26.5 33.592C26.0711 34.3907 25.4587 35.0806 24.7112 35.607C23.9295 36.14 23.0616 36.53 22.1407 36.7575C21.1773 37.0108 20.1834 37.1354 19.186 37.128H8.215V14.9565H18.8812C19.9611 14.9565 20.9416 15.054 21.836 15.236C22.7237 15.418 23.479 15.73 24.115 16.1525C24.7444 16.575 25.2412 17.1405 25.5924 17.8425C25.9369 18.538 26.1157 19.409 26.1157 20.4425C26.1157 21.5605 25.8574 22.4835 25.3406 23.231C24.8172 23.9785 24.062 24.583 23.0351 25.0575C24.433 25.4475 25.4599 26.143 26.1356 27.118C26.8246 28.106 27.1625 29.289 27.1625 30.68C27.1625 31.811 26.9439 32.7795 26.5 33.592ZM44.9705 30.16H33.1515C33.1515 31.421 33.5954 32.63 34.2645 33.28C34.9402 33.9235 35.9075 34.2485 37.1729 34.2485C38.0871 34.2485 38.8622 34.021 39.5247 33.5725C40.1806 33.124 40.5781 32.6495 40.7239 32.1555H44.6856C44.0496 34.086 43.0824 35.464 41.7706 36.296C40.4721 37.128 38.8821 37.544 37.0337 37.544C35.7419 37.544 34.5825 37.336 33.5424 36.9395C32.542 36.556 31.641 35.971 30.899 35.217C30.1674 34.4427 29.6019 33.532 29.2361 32.539C28.832 31.4405 28.6333 30.2835 28.6465 29.12C28.6465 27.9175 28.8519 26.7995 29.2494 25.7595C30.0112 23.738 31.5946 22.1195 33.6152 21.281C34.6951 20.839 35.8545 20.618 37.0271 20.631C38.4184 20.631 39.6241 20.891 40.6709 21.424C41.6786 21.933 42.5535 22.6624 43.2281 23.556C43.8972 24.4465 44.3676 25.4605 44.6657 26.6045C44.9506 27.729 45.05 28.912 44.9705 30.16V30.16ZM36.888 23.946C36.1725 23.946 35.5696 24.0695 35.1059 24.31C34.6421 24.5505 34.2579 24.8495 33.9664 25.194C33.6888 25.5266 33.4836 25.9115 33.3635 26.325C33.2575 26.6695 33.1846 27.0205 33.1581 27.378H40.4787C40.3727 26.2535 39.9752 25.4215 39.4452 24.8365C38.8887 24.258 37.9944 23.946 36.888 23.946V23.946ZM20.4249 23.2895C21.0012 22.88 21.2795 22.204 21.2795 21.2745C21.2994 20.8325 21.2066 20.397 21.0079 20.0005C20.829 19.682 20.564 19.4155 20.2394 19.227C19.9028 19.0267 19.5289 18.8942 19.1396 18.837C18.7156 18.759 18.285 18.72 17.861 18.7265H13.2036V23.907H18.2452C19.1131 23.9135 19.8485 23.7055 20.4249 23.2895V23.2895ZM21.2066 27.9695C20.5574 27.482 19.6895 27.2415 18.6096 27.2415H13.1904V33.3515H18.5036C19.0005 33.3515 19.4576 33.306 19.9015 33.215C20.3454 33.124 20.7429 32.968 21.0807 32.747C21.4186 32.5325 21.6902 32.24 21.8956 31.863C22.0944 31.486 22.1937 31.005 22.1937 30.4265C22.1937 29.276 21.8625 28.4635 21.2066 27.9695V27.9695Z" fill="#FF6B6B"/>
</svg>
