<svg width="70" height="70" viewBox="0 0 70 70" fill="none" xmlns="http://www.w3.org/2000/svg">
<path d="M35.2734 46.0059C35.2734 46.3066 35.5059 46.5527 35.7861 46.5527H48.4326C48.7129 46.5527 48.9453 46.3066 48.9453 46.0059V42.7246C48.9453 42.4238 48.7129 42.1777 48.4326 42.1777H35.7861C35.5059 42.1777 35.2734 42.4238 35.2734 42.7246V46.0059ZM21.9502 46.4228L35.0752 35.417C35.335 35.1982 35.335 34.7949 35.0752 34.5762L21.9502 23.5771C21.871 23.5098 21.7741 23.4665 21.671 23.4526C21.5679 23.4387 21.463 23.4546 21.3687 23.4985C21.2744 23.5424 21.1947 23.6124 21.1391 23.7003C21.0834 23.7881 21.0541 23.8901 21.0547 23.9941V28.2803C21.0547 28.4443 21.123 28.5947 21.2529 28.6973L28.7588 35L21.2529 41.3027C21.1918 41.3539 21.1425 41.4176 21.1083 41.4896C21.0741 41.5615 21.0558 41.64 21.0547 41.7197V46.0059C21.0547 46.4707 21.5947 46.7236 21.9502 46.4228ZM60.1562 7.65625H9.84375C8.63379 7.65625 7.65625 8.63379 7.65625 9.84375V60.1562C7.65625 61.3662 8.63379 62.3438 9.84375 62.3438H60.1562C61.3662 62.3438 62.3438 61.3662 62.3438 60.1562V9.84375C62.3438 8.63379 61.3662 7.65625 60.1562 7.65625ZM57.4219 57.4219H12.5781V12.5781H57.4219V57.4219Z" fill="#FF6B6B"/>
</svg>
