<svg width="56" height="55" viewBox="0 0 56 55" fill="none" xmlns="http://www.w3.org/2000/svg">
<path fill-rule="evenodd" clip-rule="evenodd" d="M27.8974 0C12.4841 0 0 12.4841 0 27.8974C0 40.2421 7.98564 50.6687 19.0749 54.3652C20.4698 54.6093 20.9928 53.7723 20.9928 53.04C20.9928 52.3775 20.958 50.1805 20.958 47.8441C13.9487 49.1344 12.1354 46.1354 11.5774 44.5662C11.2636 43.7641 9.90359 41.2882 8.71795 40.6257C7.74154 40.1026 6.34667 38.8123 8.68308 38.7775C10.88 38.7426 12.4492 40.8 12.9723 41.6369C15.4831 45.8564 19.4933 44.6708 21.0974 43.9385C21.3415 42.1251 22.0739 40.9046 22.8759 40.2072C16.6687 39.5098 10.1826 37.1036 10.1826 26.4328C10.1826 23.399 11.2636 20.8882 13.0421 18.9354C12.7631 18.238 11.7867 15.3785 13.321 11.5426C13.321 11.5426 15.6574 10.8103 20.9928 14.4021C23.2246 13.7744 25.5959 13.4605 27.9672 13.4605C30.3385 13.4605 32.7098 13.7744 34.9416 14.4021C40.2769 10.7754 42.6134 11.5426 42.6134 11.5426C44.1477 15.3785 43.1713 18.238 42.8923 18.9354C44.6708 20.8882 45.7518 23.3641 45.7518 26.4328C45.7518 37.1385 39.2308 39.5098 33.0236 40.2072C34.0349 41.079 34.9067 42.7528 34.9067 45.3682C34.9067 49.0995 34.8718 52.0985 34.8718 53.04C34.8718 53.7723 35.3949 54.6441 36.7898 54.3652C42.3278 52.4954 47.1401 48.936 50.5494 44.1881C53.9587 39.4401 55.7932 33.7426 55.7949 27.8974C55.7949 12.4841 43.3108 0 27.8974 0Z" fill="#FF6B6B"/>
</svg>
