<svg width="53" height="53" viewBox="0 0 53 53" fill="none" xmlns="http://www.w3.org/2000/svg">
<path fill-rule="evenodd" clip-rule="evenodd" d="M6.4549e-07 4.37257C6.4549e-07 3.216 0.459446 2.1068 1.27726 1.28899C2.09508 0.471169 3.20428 0.0117246 4.36085 0.0117246H47.8317C48.4049 0.0107884 48.9726 0.122912 49.5023 0.341675C50.0321 0.560438 50.5135 0.881544 50.919 1.28661C51.3245 1.69168 51.6462 2.17275 51.8655 2.70228C52.0849 3.23181 52.1976 3.79941 52.1973 4.37257V47.8434C52.1979 48.4167 52.0855 48.9845 51.8665 49.5142C51.6474 50.044 51.3261 50.5254 50.9209 50.9309C50.5156 51.3364 50.0344 51.658 49.5047 51.8773C48.975 52.0966 48.4073 52.2093 47.8341 52.209H4.36085C3.78797 52.209 3.22071 52.0961 2.69147 51.8768C2.16224 51.6575 1.6814 51.3361 1.27642 50.9309C0.871451 50.5257 0.550283 50.0447 0.331269 49.5153C0.112256 48.986 -0.000311038 48.4187 6.4549e-07 47.8458V4.37257ZM20.6606 19.9131H27.7286V23.4625C28.7488 21.4221 31.3587 19.5857 35.2806 19.5857C42.7994 19.5857 44.5812 23.65 44.5812 31.1071V44.9204H36.9723V32.8059C36.9723 28.5589 35.9521 26.1626 33.3612 26.1626C29.7667 26.1626 28.2719 28.7463 28.2719 32.8059V44.9204H20.6606V19.9131ZM7.61131 44.5953H15.2226V19.5857H7.61131V44.5929V44.5953ZM16.3117 11.4287C16.326 12.0804 16.21 12.7284 15.9706 13.3346C15.7311 13.9409 15.3729 14.4932 14.9171 14.9592C14.4613 15.4252 13.917 15.7954 13.3161 16.0482C12.7153 16.3009 12.07 16.4311 11.4182 16.4311C10.7663 16.4311 10.121 16.3009 9.52018 16.0482C8.91933 15.7954 8.37503 15.4252 7.9192 14.9592C7.46338 14.4932 7.10522 13.9409 6.86575 13.3346C6.62627 12.7284 6.51031 12.0804 6.52466 11.4287C6.55283 10.1495 7.08076 8.93222 7.9954 8.0375C8.91004 7.14278 10.1387 6.64177 11.4182 6.64177C12.6976 6.64177 13.9263 7.14278 14.8409 8.0375C15.7555 8.93222 16.2835 10.1495 16.3117 11.4287V11.4287Z" fill="#FF6B6B"/>
</svg>
