<svg width="74" height="66" viewBox="0 0 74 66" fill="none" xmlns="http://www.w3.org/2000/svg">
<path d="M37 26.5146C40.5451 26.5146 43.4363 29.397 43.4363 33C43.4363 36.4314 40.5451 39.3481 37 39.3481C33.4549 39.3481 30.5637 36.4314 30.5637 33C30.5637 29.397 33.4549 26.5146 37 26.5146ZM21.0642 60.4513C23.2326 61.7552 27.9823 59.765 33.4549 54.6179C31.6651 52.5934 29.9098 50.3973 28.2577 48.0982C25.4841 47.8336 22.7266 47.4212 19.9972 46.8629C18.2419 54.2061 18.8958 59.2503 21.0642 60.4513V60.4513ZM23.5079 40.755L22.5098 39.005C22.1312 40.0001 21.7526 40.9952 21.5116 41.956C22.4409 42.1619 23.4735 42.3334 24.5405 42.505L23.5079 40.755ZM46.0177 38.1471L48.8056 33L46.0177 27.8529C44.9851 26.0342 43.8837 24.4215 42.8856 22.8087C41.027 22.7058 39.0651 22.7058 37 22.7058C34.9349 22.7058 32.973 22.7058 31.1144 22.8087C30.1163 24.4215 29.0149 26.0342 27.9823 27.8529L25.1944 33L27.9823 38.1471C29.0149 39.9658 30.1163 41.5785 31.1144 43.1913C32.973 43.2942 34.9349 43.2942 37 43.2942C39.0651 43.2942 41.027 43.2942 42.8856 43.1913C43.8837 41.5785 44.9851 39.9658 46.0177 38.1471V38.1471ZM37 15.088C36.346 15.8429 35.6577 16.6322 34.9693 17.5586H39.0307C38.3423 16.6322 37.654 15.8429 37 15.088ZM37 50.912C37.654 50.1571 38.3423 49.3678 39.0307 48.4414H34.9693C35.6577 49.3678 36.346 50.1571 37 50.912ZM52.9014 5.54871C50.7674 4.24477 46.0177 6.23499 40.5451 11.3821C42.3349 13.4066 44.0902 15.6027 45.7423 17.9018C48.5647 18.1763 51.3526 18.5881 54.0028 19.1371C55.7581 11.7939 55.1042 6.7497 52.9014 5.54871ZM50.4921 25.245L51.4902 26.995C51.8688 25.9999 52.2474 25.0048 52.4884 24.044C51.5591 23.8381 50.5265 23.6666 49.4595 23.495L50.4921 25.245V25.245ZM55.4828 1.05356C60.5423 3.93594 61.093 11.5194 58.9591 20.3724C67.7014 22.946 74 27.2009 74 33C74 38.7991 67.7014 43.054 58.9591 45.6276C61.093 54.4806 60.5423 62.0641 55.4828 64.9464C50.4577 67.8288 43.6084 64.5347 37 58.2552C30.3916 64.5347 23.5423 67.8288 18.4828 64.9464C13.4577 62.0641 12.907 54.4806 15.0409 45.6276C6.2986 43.054 0 38.7991 0 33C0 27.2009 6.2986 22.946 15.0409 20.3724C12.907 11.5194 13.4577 3.93594 18.4828 1.05356C23.5423 -1.82883 30.3916 1.46533 37 7.74481C43.6084 1.46533 50.4577 -1.82883 55.4828 1.05356ZM54.4847 33C55.6549 35.5736 56.6874 38.1471 57.5479 40.755C64.7758 38.5932 68.8372 35.5049 68.8372 33C68.8372 30.4951 64.7758 27.4068 57.5479 25.245C56.6874 27.8529 55.6549 30.4264 54.4847 33ZM19.5153 33C18.3451 30.4264 17.3126 27.8529 16.4521 25.245C9.22419 27.4068 5.16279 30.4951 5.16279 33C5.16279 35.5049 9.22419 38.5932 16.4521 40.755C17.3126 38.1471 18.3451 35.5736 19.5153 33ZM50.4921 40.755L49.4595 42.505C50.5265 42.3334 51.5591 42.1619 52.4884 41.956C52.2474 40.9952 51.8688 40.0001 51.4902 39.005L50.4921 40.755V40.755ZM40.5451 54.6179C46.0177 59.765 50.7674 61.7552 52.9014 60.4513C55.1042 59.2503 55.7581 54.2061 54.0028 46.8629C51.3526 47.4119 48.5647 47.8237 45.7423 48.0982C44.0902 50.3973 42.3349 52.5934 40.5451 54.6179V54.6179ZM23.5079 25.245L24.5405 23.495C23.4735 23.6666 22.4409 23.8381 21.5116 24.044C21.7526 25.0048 22.1312 25.9999 22.5098 26.995L23.5079 25.245ZM33.4549 11.3821C27.9823 6.23499 23.2326 4.24477 21.0642 5.54871C18.8958 6.7497 18.2419 11.7939 19.9972 19.1371C22.7266 18.5788 25.4841 18.1664 28.2577 17.9018C29.9098 15.6027 31.6651 13.4066 33.4549 11.3821V11.3821Z" fill="#858585"/>
</svg>
