<svg width="60" height="60" viewBox="0 0 60 60" fill="none" xmlns="http://www.w3.org/2000/svg">
<g clip-path="url(#clip0)">
<path d="M49.7456 47.9981L39.0056 30L49.7456 12.0019L55.0012 30L49.7456 47.9981ZM25.995 46.2506L12.5006 32.9981H34.005L44.745 50.9962L25.995 46.2506ZM25.995 13.4944L44.745 8.74875L34.005 26.7469H12.2456C12.2456 27.0019 25.995 13.4944 25.995 13.4944V13.4944ZM53.4956 0L29.0063 6.24937L25.2563 12.4987H17.9981L0 29.9981L17.9981 47.4975H25.2563L28.7512 53.7469L53.2538 59.9962L59.7469 36.2456L56.2519 29.9963L60.0019 23.7469L53.4956 0Z" fill="#858585"/>
</g>
<defs>
<clipPath id="clip0">
<rect width="60" height="60" fill="white"/>
</clipPath>
</defs>
</svg>
