<svg width="88" height="63" viewBox="0 0 88 63" fill="none" xmlns="http://www.w3.org/2000/svg">
<path d="M17.4687 62.5039C15.949 62.5066 14.4357 62.3069 12.9687 61.9102C8.56531 60.6545 4.82946 57.7228 2.56269 53.7443C0.295916 49.7658 -0.321201 45.0573 0.843737 40.6289L8.12499 13.0039C8.69204 10.7682 9.70013 8.66836 11.09 6.82768C12.4799 4.98699 14.2236 3.44259 16.2187 2.28519C18.1613 1.16003 20.3079 0.431521 22.534 0.141854C24.7602 -0.147813 27.0216 0.00712415 29.1875 0.597691C31.4898 1.23703 33.6342 2.34771 35.4847 3.85933C37.3352 5.37095 38.8515 7.25053 39.9375 9.37894H48.0625C49.1437 7.24712 50.6585 5.36477 52.5098 3.85258C54.361 2.34039 56.5078 1.23173 58.8125 0.597691C60.9783 0.00712415 63.2398 -0.147813 65.466 0.141854C67.6921 0.431521 69.8386 1.16003 71.7812 2.28519C73.7666 3.43963 75.5039 4.97556 76.8931 6.80446C78.2822 8.63337 79.2956 10.7191 79.875 12.9414L87.1562 40.6289C88.3386 45.0702 87.7264 49.7982 85.4518 53.7918C83.1773 57.7854 79.423 60.724 75 61.9727C72.8341 62.5633 70.5727 62.7182 68.3465 62.4285C66.1204 62.1389 63.9738 61.4103 62.0312 60.2852C60.0426 59.1348 58.3027 57.6002 56.9132 55.7707C55.5236 53.9411 54.512 51.8533 53.9375 49.6289L53.375 46.8789H34.625L33.9062 49.5664C33.3317 51.7908 32.3201 53.8786 30.9306 55.7082C29.541 57.5377 27.8012 59.0723 25.8125 60.2227C23.2734 61.6872 20.3998 62.4728 17.4687 62.5039V62.5039ZM24.7187 6.25394C22.8329 6.26035 20.981 6.75563 19.3437 7.69144C16.7777 9.19701 14.9124 11.6577 14.1562 14.5352L6.87499 42.1602C6.11307 45.0063 6.49806 48.0376 7.94723 50.6029C9.39639 53.1682 11.7941 55.0625 14.625 55.8789C15.9922 56.2519 17.4198 56.35 18.8251 56.1676C20.2305 55.9852 21.5858 55.526 22.8125 54.8164C24.0897 54.0791 25.2066 53.0938 26.0974 51.9185C26.9883 50.7432 27.6351 49.4016 28 47.9727L29.9375 40.6289H58.0625L59.9687 47.9727C60.34 49.3989 60.9894 50.7377 61.8797 51.9121C62.7699 53.0866 63.8834 54.0736 65.1562 54.8164C66.389 55.5253 67.7495 55.984 69.1598 56.1663C70.5701 56.3487 72.0025 56.251 73.375 55.8789C76.2093 55.0701 78.61 53.1755 80.0553 50.6067C81.5006 48.0379 81.8738 45.0026 81.0937 42.1602L73.8125 14.5352C73.4497 13.1096 72.807 11.7703 71.9218 10.5954C71.0366 9.42047 69.9265 8.43334 68.6562 7.69144C67.4235 6.98258 66.063 6.52386 64.6527 6.34154C63.2424 6.15922 61.81 6.25689 60.4375 6.62894C58.7401 7.11278 57.1827 7.99461 55.8946 9.2012C54.6065 10.4078 53.6249 11.9043 53.0312 13.5664L52.2812 15.6289H35.7187L34.9687 13.5664C34.3698 11.9021 33.3827 10.4045 32.0892 9.19799C30.7957 7.99147 29.2332 7.11076 27.5312 6.62894C26.6141 6.38165 25.6686 6.25558 24.7187 6.25394V6.25394Z" fill="white"/>
<path d="M25.25 31.2539C24.0139 31.2539 22.8055 30.8874 21.7777 30.2006C20.7499 29.5138 19.9488 28.5377 19.4758 27.3957C19.0027 26.2536 18.8789 24.997 19.1201 23.7846C19.3613 22.5722 19.9565 21.4586 20.8306 20.5845C21.7047 19.7104 22.8183 19.1152 24.0307 18.874C25.2431 18.6328 26.4997 18.7566 27.6418 19.2297C28.7838 19.7027 29.7599 20.5038 30.4467 21.5316C31.1334 22.5594 31.5 23.7678 31.5 25.0039C31.5 26.6615 30.8415 28.2512 29.6694 29.4233C28.4973 30.5954 26.9076 31.2539 25.25 31.2539Z" fill="white"/>
<path d="M62.75 21.8789C64.4759 21.8789 65.875 20.4798 65.875 18.7539C65.875 17.028 64.4759 15.6289 62.75 15.6289C61.0241 15.6289 59.625 17.028 59.625 18.7539C59.625 20.4798 61.0241 21.8789 62.75 21.8789Z" fill="white"/>
<path d="M62.75 34.3789C64.4759 34.3789 65.875 32.9798 65.875 31.2539C65.875 29.528 64.4759 28.1289 62.75 28.1289C61.0241 28.1289 59.625 29.528 59.625 31.2539C59.625 32.9798 61.0241 34.3789 62.75 34.3789Z" fill="white"/>
<path d="M56.5 28.1289C58.2259 28.1289 59.625 26.7298 59.625 25.0039C59.625 23.278 58.2259 21.8789 56.5 21.8789C54.7741 21.8789 53.375 23.278 53.375 25.0039C53.375 26.7298 54.7741 28.1289 56.5 28.1289Z" fill="white"/>
<path d="M69 28.1289C70.7259 28.1289 72.125 26.7298 72.125 25.0039C72.125 23.278 70.7259 21.8789 69 21.8789C67.2741 21.8789 65.875 23.278 65.875 25.0039C65.875 26.7298 67.2741 28.1289 69 28.1289Z" fill="white"/>
</svg>
