<svg width="76" height="68" viewBox="0 0 76 68" fill="none" xmlns="http://www.w3.org/2000/svg">
<path d="M63.2778 0C64.8901 0 66.4867 0.317574 67.9763 0.93459C69.4659 1.55161 70.8194 2.45598 71.9595 3.59608C73.0996 4.73617 74.0039 6.08967 74.621 7.57928C75.238 9.06888 75.5555 10.6654 75.5555 12.2778V55.7222C75.5555 57.3346 75.238 58.9311 74.621 60.4207C74.0039 61.9103 73.0996 63.2638 71.9595 64.4039C70.8194 65.544 69.4659 66.4484 67.9763 67.0654C66.4867 67.6824 64.8901 68 63.2778 68H12.2778C9.02151 68 5.89861 66.7065 3.59608 64.4039C1.29355 62.1014 0 58.9785 0 55.7222V12.2778C0 9.02151 1.29355 5.89861 3.59608 3.59608C5.89861 1.29355 9.02151 0 12.2778 0H63.2778ZM63.2778 5.66667H12.2778C10.5244 5.66667 8.84284 6.36319 7.60302 7.60302C6.36319 8.84284 5.66667 10.5244 5.66667 12.2778V55.7222C5.66667 59.3716 8.62844 62.3333 12.2778 62.3333H63.2778C65.0311 62.3333 66.7127 61.6368 67.9525 60.397C69.1924 59.1572 69.8889 57.4756 69.8889 55.7222V12.2778C69.8889 10.5244 69.1924 8.84284 67.9525 7.60302C66.7127 6.36319 65.0311 5.66667 63.2778 5.66667ZM17.9369 13.2222H57.6262C58.3441 13.2224 59.0351 13.4951 59.5596 13.9852C60.0842 14.4753 60.4032 15.1462 60.4521 15.8624C60.501 16.5786 60.2763 17.2867 59.8232 17.8436C59.3702 18.4004 58.7227 18.7646 58.0116 18.8624L57.6262 18.8889H17.9369C17.2193 18.8877 16.529 18.6143 16.0051 18.124C15.4813 17.6336 15.1631 16.9627 15.1146 16.2468C15.0662 15.5309 15.2912 14.8233 15.7442 14.2668C16.1972 13.7103 16.8445 13.3465 17.5553 13.2487L17.9369 13.2222H57.6262H17.9369V13.2222Z" fill="white"/>
</svg>
